#!OML:ASF X:\für Bonn\!DataBase\2005_08_10_Bjorn_Final\c3d\bjorn.ASF
:FULLY-SPECIFIED
:DEGREES
80
root 5.24049 18.0984 11.1852 8.82839 -4.27511 361.919
lowerback 8.1668 1.64888 0.514233
upperback 13.7289 2.26972 -1.29445
thorax 10.1724 1.25207 -1.65829
lowerneck -1.26165 -2.01456 -1.18136
upperneck 5.733 -2.71982 1.46421
head 2.04461 -1.34008 0.600946
rclavicle -1.27222e-014 1.2921e-014
rhumerus -37.6516 -27.2983 -84.1774
rradius 28.9882
rwrist -0.72516
rhand -25.3335 26.6198
rfingers 7.12502
rthumb 1.18949 -3.35658
lclavicle -1.27222e-014 1.2921e-014
lhumerus -34.1977 15.8409 87.3254
lradius 22.2488
lwrist 3.0067
lhand -37.9424 -23.9261
lfingers 7.12502
lthumb -10.9837 5.76655
rfemur -35.0945 2.1436 12.1845
rtibia 57.209
rfoot -22.409 14.8045
rtoes -19.773
lfemur -38.9199 -0.988801 -14.865
ltibia 58.0272
lfoot -13.3295 -5.57049
ltoes -19.0479
81
root 5.24326 17.8541 11.3961 8.57179 -4.43812 361.956
lowerback 7.94401 1.74113 0.440377
upperback 13.5552 2.3956 -1.35105
thorax 10.1026 1.30899 -1.67188
lowerneck -2.29675 -2.03655 -1.53221
upperneck 5.60914 -2.74379 1.77877
head 2.2034 -1.34819 0.751171
rclavicle -2.47487e-014 1.82882e-014
rhumerus -37.3892 -28.415 -83.572
rradius 27.8455
rwrist -0.706029
rhand -25.3194 26.1675
rfingers 7.12502
rthumb 1.20308 -3.80882
lclavicle -2.47487e-014 1.82882e-014
lhumerus -34.1642 18.9479 85.7848
lradius 21.2856
lwrist 3.15575
lhand -38.6917 -22.6488
lfingers 7.12502
lthumb -11.7063 7.00413
rfemur -34.7877 2.78352 12.2156
rtibia 58.9723
rfoot -25.9873 14.2319
rtoes -18.8741
lfemur -38.8199 -1.22202 -15.1049
ltibia 60.3998
lfoot -16.9644 -4.98287
ltoes -17.0636
82
root 5.24558 17.6531 11.6091 8.28339 -4.60183 362.059
lowerback 7.77522 1.83254 0.342038
upperback 13.3632 2.52338 -1.45928
thorax 9.9825 1.36779 -1.72861
lowerneck -3.1586 -2.03658 -1.91574
upperneck 5.19937 -2.73986 2.29567
head 2.24295 -1.3378 0.975836
rclavicle -6.65929e-015 -1.39149e-015
rhumerus -36.9381 -29.3902 -83.185
rradius 27.1478
rwrist -1.20231
rhand -25.5613 24.6523
rfingers 7.12502
rthumb 0.969498 -5.32526
lclavicle -6.65929e-015 -1.39149e-015
lhumerus -34.041 22.0761 84.0892
lradius 20.4788
lwrist 3.33263
lhand -39.2706 -20.6948
lfingers 7.12502
lthumb -12.2646 8.92561
rfemur -34.3341 3.50782 12.1601
rtibia 60.5067
rfoot -28.9438 13.3714
rtoes -18.7515
lfemur -38.5138 -1.42702 -15.5071
ltibia 62.3526
lfoot -20.1386 -4.08918
ltoes -16.8723
83
root 5.24739 17.4921 11.8223 7.97369 -4.75143 362.131
lowerback 7.64021 1.91122 0.255696
upperback 13.1788 2.63173 -1.53416
thorax 9.85036 1.4161 -1.75719
lowerneck -4.15872 -2.08924 -1.99392
upperneck 4.97354 -2.78931 2.30094
head 2.35395 -1.359 0.982313
rclavicle -8.84592e-015 2.98177e-016
rhumerus -36.3302 -30.0287 -82.9843
rradius 26.9797
rwrist -2.2122
rhand -25.9125 24.11
rfingers 7.12502
rthumb 0.630261 -5.86886
lclavicle -8.84592e-015 2.98177e-016
lhumerus -33.9408 24.5834 82.6882
lradius 20.2024
lwrist 3.89156
lhand -40.4811 -20.1945
lfingers 7.12502
lthumb -13.4315 9.3525
rfemur -33.6876 4.3074 12.1354
rtibia 61.7411
rfoot -31.22 12.4276
rtoes -18.7835
lfemur -37.9367 -1.59751 -15.9345
ltibia 63.8494
lfoot -22.897 -2.72
ltoes -18.5309
84
root 5.24774 17.3692 12.0344 7.70182 -4.84631 362.147
lowerback 7.46764 1.98155 0.23536
upperback 12.9645 2.72871 -1.58757
thorax 9.70753 1.46371 -1.79845
lowerneck -4.9691 -2.22906 -1.64801
upperneck 4.74515 -2.95137 1.69434
head 2.41055 -1.44736 0.715943
rclavicle 4.87022e-015 -9.0447e-015
rhumerus -35.6065 -30.5264 -82.9414
rradius 27.2546
rwrist -3.31717
rhand -26.2458 25.1688
rfingers 7.12502
rthumb 0.308374 -4.81071
lclavicle 4.87022e-015 -9.0447e-015
lhumerus -33.7839 26.0532 81.7778
lradius 20.5094
lwrist 5.08326
lhand -41.3812 -22.9583
lfingers 7.12502
lthumb -14.299 6.52933
rfemur -32.9021 5.07503 12.2054
rtibia 62.6345
rfoot -33.0003 11.2842
rtoes -19.5603
lfemur -37.2195 -1.70119 -16.3167
ltibia 64.911
lfoot -25.0376 -1.06163
ltoes -20.8341
85
root 5.24539 17.287 12.2472 7.55033 -4.88866 362.076
lowerback 7.20702 2.02659 0.272514
upperback 12.6467 2.79023 -1.60927
thorax 9.49683 1.49621 -1.83618
lowerneck -5.26502 -2.33974 -1.32472
upperneck 4.17031 -3.08434 1.13936
head 2.25801 -1.5243 0.477765
rclavicle -2.51463e-014 2.19657e-014
rhumerus -35.3574 -30.473 -83.02
rradius 28.4246
rwrist -4.62153
rhand -26.8601 26.2407
rfingers 7.12502
rthumb -0.284935 -3.73882
lclavicle -2.51463e-014 2.19657e-014
lhumerus -33.6585 26.9923 80.8752
lradius 21.1214
lwrist 4.80514
lhand -42.5661 -24.7733
lfingers 7.12502
lthumb -15.4405 4.63002
rfemur -32.0518 5.83827 12.3791
rtibia 63.1483
rfoot -34.3689 10.1449
rtoes -20.723
lfemur -36.4186 -1.84158 -16.586
ltibia 65.5412
lfoot -26.5763 0.631007
ltoes -22.3647
86
root 5.24077 17.2475 12.4625 7.56447 -4.87563 361.844
lowerback 6.75654 2.05838 0.460769
upperback 12.2535 2.8338 -1.58927
thorax 9.31647 1.53022 -1.90765
lowerneck -5.18406 -2.40144 -1.057
upperneck 3.37697 -3.16348 0.735422
head 1.96954 -1.57217 0.307113
rclavicle -2.5345e-014 1.48095e-014
rhumerus -35.1642 -30.0679 -83.2753
rradius 30.4276
rwrist -5.91771
rhand -28.0314 26.4668
rfingers 7.12502
rthumb -1.41627 -3.50827
lclavicle -2.5345e-014 1.48095e-014
lhumerus -33.5906 26.5792 80.4533
lradius 22.4221
lwrist 4.2948
lhand -44.4387 -25.7833
lfingers 7.12502
lthumb -17.2434 3.47165
rfemur -31.2171 6.59511 12.7253
rtibia 63.2988
rfoot -35.2973 9.22785
rtoes -21.6034
lfemur -35.5854 -2.07144 -16.6236
ltibia 65.741
lfoot -27.6826 2.17312
ltoes -23.9159
87
root 5.23432 17.245 12.6832 7.74801 -4.86888 361.576
lowerback 6.0282 2.08635 0.636707
upperback 11.8298 2.87089 -1.54134
thorax 9.26274 1.55737 -1.93266
lowerneck -4.89437 -2.45398 -0.857587
upperneck 2.56399 -3.23434 0.40282
head 1.64356 -1.61432 0.176497
rclavicle -2.52953e-014 2.06736e-014
rhumerus -35.0295 -29.0414 -83.7635
rradius 33.466
rwrist -7.2361
rhand -29.1854 25.3667
rfingers 7.12502
rthumb -2.5308 -4.59805
lclavicle -2.52953e-014 2.06736e-014
lhumerus -33.4094 24.61 80.7979
lradius 24.6731
lwrist 4.39761
lhand -45.7581 -24.3105
lfingers 7.12502
lthumb -18.513 4.82857
rfemur -30.4164 7.31019 13.0968
rtibia 63.1054
rfoot -35.8205 8.43778
rtoes -22.7638
lfemur -34.7428 -2.3081 -16.5609
ltibia 65.5244
lfoot -28.3717 3.71635
ltoes -26.1728
